<svg xmlns="http://www.w3.org/2000/svg" viewBox="0 0 200 200" role="img" aria-label="cesto — Caboclo Nativo">
  <title>cesto · Caboclo Nativo</title>
  
  <g fill="none" stroke="currentColor" stroke-width="4.2" stroke-linecap="round" stroke-linejoin="round"><path d="M112 104 C 104 88, 108 68, 117 58 C 126 68, 124 88, 117 104" stroke-width="2.8"></path><path d="M117 104 L117 62" stroke-width="1.8"></path><path d="M86 104 L80 64" stroke-width="3"></path><circle cx="80" cy="59" r="7.5" stroke-width="3"></circle><path d="M100 104 L101 70" stroke-width="3"></path><path d="M58 110 Q100 100 142 110"></path><path d="M58 110 Q100 120 142 110" stroke-width="2.4" opacity="0.55"></path><path d="M63 112 L73 150 Q100 158 127 150 L137 112"></path><path d="M82 116 L86 150 M100 117 L100 154 M118 116 L114 150" stroke-width="2" opacity="0.7"></path><path d="M67 126 Q100 134 133 126 M71 140 Q100 147 129 140" stroke-width="2" opacity="0.7"></path></g>
</svg>