<svg xmlns="http://www.w3.org/2000/svg" viewBox="0 0 200 200" role="img" aria-label="caboclo — Caboclo Nativo">
  <title>caboclo · Caboclo Nativo</title>
  
  <circle cx="100" cy="100" r="90" fill="none" stroke="currentColor" stroke-width="2.4"></circle><circle cx="100" cy="100" r="82" fill="none" stroke="currentColor" stroke-width="1" opacity="0.5"></circle><g stroke="currentColor" stroke-width="2" opacity="0.65"><line x1="100" y1="16" x2="100" y2="26"></line><line x1="100" y1="174" x2="100" y2="184"></line><line x1="16" y1="100" x2="26" y2="100"></line><line x1="174" y1="100" x2="184" y2="100"></line></g><g transform="translate(4,6)" fill="none" stroke="currentColor" stroke-width="4.2" stroke-linecap="round" stroke-linejoin="round"><path d="M88 66 C 98 67, 100 78, 96 86 L110 99 L96 103 Q101 108 95 113 Q98 119 96 123 Q95 131 84 132"></path><path d="M88 66 C 73 68, 69 94, 72 112 C 74 125, 78 131, 84 132"></path><circle cx="92" cy="88" r="2.3" fill="currentColor" stroke="none"></circle><path d="M80 74 L98 80" stroke-width="3"></path><circle cx="89" cy="77" r="1.9" fill="currentColor" stroke="none"></circle><path d="M82 68 Q75 48 74 32" stroke-width="3"></path><path d="M74 32 q-4 5 -1 11 q5 -3 4 -10" stroke-width="2"></path><path d="M88 64 Q85 46 86 28" stroke-width="3"></path><path d="M86 28 q-4 5 -1 11 q5 -3 3 -10" stroke-width="2"></path><path d="M94 64 Q95 46 101 31" stroke-width="3"></path><path d="M101 31 q1 6 5 9 q3 -5 -1 -11" stroke-width="2"></path><path d="M82 99 l6 3 M82 105 l6 -3" stroke-width="2"></path></g>
</svg>