<svg xmlns="http://www.w3.org/2000/svg" viewBox="0 0 200 200" role="img" aria-label="cachimbo — Caboclo Nativo">
  <title>cachimbo · Caboclo Nativo</title>
  
  <circle cx="100" cy="100" r="90" fill="none" stroke="currentColor" stroke-width="2.4"></circle><circle cx="100" cy="100" r="82" fill="none" stroke="currentColor" stroke-width="1" opacity="0.5"></circle><g stroke="currentColor" stroke-width="2" opacity="0.65"><line x1="100" y1="16" x2="100" y2="26"></line><line x1="100" y1="174" x2="100" y2="184"></line><line x1="16" y1="100" x2="26" y2="100"></line><line x1="174" y1="100" x2="184" y2="100"></line></g><g fill="none" stroke="currentColor" stroke-width="4.6" stroke-linecap="round" stroke-linejoin="round"><path d="M46 102 L150 96"></path><path d="M137 99 L140 74 Q149 67 158 74 L155 98"></path><circle cx="46" cy="102" r="4.6" fill="currentColor" stroke="none"></circle><path d="M96 98 l-2 8" stroke-width="2.6"></path><path d="M103 98 l-2 8" stroke-width="2.6"></path><path d="M97 104 C 84 116, 84 138, 93 148 C 102 138, 102 116, 97 104 Z" stroke-width="2.8"></path><path d="M93 146 L97 110" stroke-width="1.8"></path><path d="M115 100 C 105 110, 105 130, 113 138 C 121 130, 121 110, 115 100 Z" stroke-width="2.8"></path><path d="M113 136 L116 106" stroke-width="1.8"></path></g>
</svg>